<svg xmlns="http://www.w3.org/2000/svg" width="377" height="109" fill="none"><g fill="#523542" clip-path="url(#a)"><path d="m75.358 71.543-.002-.004h.001zm-1.584-4.462-10.689-12.82 3.02-33.703 7.67 46.523Z" opacity=".6" style="fill:#523542;fill:color(display-p3 .3226 .2077 .2582);fill-opacity:1"/><path d="m64.751 13.249-3.467 38.688-25.148-32.85L37.274 1z" opacity=".8" style="fill:#523542;fill:color(display-p3 .3226 .2077 .2582);fill-opacity:1"/><path d="M34.135 19.035 7.3 54.7 35.087 3.924z" opacity=".9" style="fill:#523542;fill:color(display-p3 .3226 .2077 .2582);fill-opacity:1"/><path d="m60.82 54.62-34.684 51.24L1 66.4l34.121-45.348z" opacity=".95" style="fill:#523542;fill:color(display-p3 .3226 .2077 .2582);fill-opacity:1"/><path d="M59.784 108.501h-32.5l35-52.5 11.5 14z" opacity=".75" style="fill:#523542;fill:color(display-p3 .3226 .2077 .2582);fill-opacity:1"/></g><path fill="#161616" d="M133.641 49.33q-.587-6.032-4.441-9.05-3.855-3.1-9.468-3.1-1.928 0-4.106.503a13.9 13.9 0 0 0-3.938 1.425 9.4 9.4 0 0 0-2.933 2.597q-1.173 1.592-1.173 3.854 0 2.096.838 3.603.838 1.509 2.346 2.682 1.509 1.089 3.436 1.843 2.01.755 4.273 1.34l6.116 1.593a81 81 0 0 1 7.123 2.178q3.602 1.258 6.368 3.184a15.1 15.1 0 0 1 4.44 4.776q1.76 2.85 1.76 6.955 0 4.189-1.927 7.373-1.928 3.1-5.111 5.195-3.1 2.095-7.206 3.1a33.7 33.7 0 0 1-8.212 1.006q-10.139 0-16.674-5.028-6.451-5.027-7.876-14.244h9.552q.252 2.85 1.173 5.446a14.5 14.5 0 0 0 2.849 4.609q1.843 2.01 4.608 3.268 2.765 1.173 6.62 1.173 2.262 0 4.608-.503 2.43-.587 4.357-1.76 2.011-1.257 3.268-3.1 1.257-1.928 1.257-4.692 0-2.43-1.089-4.106-1.09-1.676-2.933-2.849-1.843-1.257-4.273-2.01a61 61 0 0 0-5.111-1.509l-7.039-1.843a45 45 0 0 1-6.033-2.095q-2.932-1.34-5.194-3.268a15.8 15.8 0 0 1-3.603-4.608q-1.341-2.681-1.341-6.2 0-3.855 1.843-6.62 1.843-2.764 4.86-4.524 3.1-1.844 6.955-2.682a38.5 38.5 0 0 1 8.043-.837q4.693 0 8.547 1.34t6.703 3.687a18.4 18.4 0 0 1 4.608 5.362q1.844 3.1 2.43 6.536zm34.34 36.532q3.854 0 6.451-2.43 2.682-2.514 3.101-6.954h8.714q-.67 3.603-2.43 6.2a16.2 16.2 0 0 1-4.357 4.357q-2.514 1.675-5.614 2.514a24.6 24.6 0 0 1-6.452.838q-4.442 0-8.211-1.509-3.687-1.508-6.368-4.273t-4.19-6.703q-1.508-3.938-1.508-8.882 0-4.608 1.341-8.462 1.424-3.939 4.022-6.787 2.597-2.85 6.284-4.441 3.77-1.676 8.462-1.676 4.107 0 7.625 1.34 3.603 1.258 6.201 3.939t4.022 6.787q1.424 4.105 1.34 9.72h-29.913q.084 7.54 3.017 11.981t8.463 4.441m-.838-33.85q-2.179 0-4.106.753-1.843.67-3.268 2.263-1.423 1.508-2.346 3.938-.838 2.43-.922 5.865h20.445q.083-3.52-.67-5.95-.67-2.43-2.011-3.937a7.75 7.75 0 0 0-3.184-2.179 10.3 10.3 0 0 0-3.938-.754Zm26.636-19.775h8.966v10.306h-8.966zm8.966 26.31V83.6q0 1.507.419 2.01.503.42 2.01.587l3.268.335v2.85h-20.361v-2.85l3.268-.335q1.509-.168 1.927-.586.503-.504.503-2.011V54.022q0-1.425-.419-1.843-.418-.503-2.011-.67l-3.268-.336v-2.849h14.747zm14.539 17.93q.419 3.939 2.849 6.704 2.513 2.68 7.457 2.681 4.441 0 6.871-1.676 2.43-1.76 2.43-4.692 0-1.759-.922-2.933-.838-1.257-2.262-2.094-1.34-.839-3.101-1.341a38 38 0 0 0-3.602-.838l-4.776-.921a27.3 27.3 0 0 1-4.525-1.257 16.3 16.3 0 0 1-3.938-2.347 12.3 12.3 0 0 1-2.849-3.519q-1.089-2.094-1.089-4.943 0-3.1 1.424-5.279 1.508-2.263 3.771-3.603 2.346-1.425 5.278-2.095a27.7 27.7 0 0 1 6.033-.67q6.536 0 11.312 3.184 4.86 3.101 6.033 9.217h-8.379a6.7 6.7 0 0 0-.922-3.1 7.4 7.4 0 0 0-2.011-2.514q-1.257-1.09-3.016-1.676-1.676-.585-3.687-.586-1.173 0-2.681.251a9.7 9.7 0 0 0-2.765.754 6.15 6.15 0 0 0-2.263 1.676q-.921 1.005-.921 2.598 0 2.764 2.094 4.357 2.095 1.508 5.949 2.262l4.776.922q2.85.585 5.447 1.424 2.68.837 4.692 2.346a10.4 10.4 0 0 1 3.184 3.603q1.173 2.178 1.173 5.362 0 3.436-1.424 5.866a11.3 11.3 0 0 1-3.855 3.938q-2.43 1.507-5.614 2.178-3.184.67-6.703.67-3.603 0-6.787-.921-3.1-.922-5.53-2.681a14.45 14.45 0 0 1-3.854-4.357q-1.424-2.598-1.676-5.95zm43.155-21.282h.084q1.76-3.352 4.692-5.446 3.017-2.095 7.541-2.095 4.944 0 7.458 2.43 2.597 2.346 3.603 5.614 1.676-3.603 4.943-5.782 3.352-2.262 7.96-2.262 3.687 0 5.949 1.34 2.346 1.258 3.603 3.352 1.257 2.096 1.676 4.776.419 2.598.419 5.279V83.6q0 1.507.419 2.01.502.42 2.011.587l3.268.335v2.85h-20.361v-2.85l3.267-.335q1.509-.168 1.928-.586.502-.504.502-2.011V65.417q0-6.619-1.424-9.384-1.425-2.85-5.111-2.849-4.358 0-6.368 3.268t-2.011 8.295V83.6q0 1.507.419 2.01.502.42 2.011.587l3.268.335v2.85h-20.361v-2.85l3.268-.335q1.507-.168 1.927-.586.502-.504.502-2.011V65.417q0-6.619-1.508-9.384-1.424-2.85-5.111-2.849-4.273 0-6.368 3.268-2.011 3.268-2.011 8.295V83.6q0 1.507.419 2.01.503.42 2.011.587l3.268.335v2.85H245.86v-2.85l3.268-.335q1.508-.168 1.927-.586.503-.504.503-2.011V54.022q0-1.425-.419-1.843-.42-.503-2.011-.67l-3.268-.336v-2.849h14.579zm59.243-22.958h8.966v10.306h-8.966zm8.966 26.31V83.6q0 1.507.419 2.01.502.42 2.011.587l3.267.335v2.85h-20.36v-2.85l3.267-.335q1.509-.168 1.928-.586.502-.504.502-2.011V54.022q0-1.425-.419-1.843-.418-.503-2.011-.67l-3.267-.336v-2.849h14.747zm6.244 10.473q0-4.86 1.424-8.797 1.509-4.023 4.19-6.787 2.68-2.765 6.368-4.274 3.687-1.508 8.127-1.508 3.185 0 6.201.838 3.1.754 5.614 2.514 2.514 1.676 4.273 4.357 1.76 2.68 2.43 6.368h-8.714q-.084-2.682-1.006-4.525-.921-1.843-2.346-2.933-1.34-1.172-2.932-1.592a10.3 10.3 0 0 0-3.101-.502q-5.362 0-8.127 4.608-2.681 4.525-2.681 12.233 0 7.71 2.681 12.317 2.68 4.525 8.211 4.525 1.509 0 3.1-.419a8.8 8.8 0 0 0 2.933-1.592q1.341-1.173 2.262-3.016.922-1.844 1.006-4.525h8.714q-.67 3.686-2.43 6.368t-4.273 4.44q-2.514 1.677-5.614 2.43a23 23 0 0 1-6.201.839q-4.44 0-8.127-1.509t-6.368-4.273q-2.681-2.765-4.19-6.703-1.424-3.938-1.424-8.882" style="fill:#161616;fill:color(display-p3 .0881 .0881 .0881);fill-opacity:1"/><defs><clipPath id="a"><path fill="#fff" d="M0 0h75.574v108.255H0z" style="fill:#fff;fill-opacity:1"/></clipPath></defs></svg>